<?xml version="1.0" standalone="no"?><!DOCTYPE svg PUBLIC "-//W3C//DTD SVG 1.1//EN" "http://www.w3.org/Graphics/SVG/1.1/DTD/svg11.dtd"><svg t="1630689137778" class="icon" viewBox="0 0 1024 1024" version="1.1" xmlns="http://www.w3.org/2000/svg" p-id="8417" xmlns:xlink="http://www.w3.org/1999/xlink" width="200" height="200"><defs><style type="text/css"></style></defs><path d="M512 64c-70.272 0-128 57.728-128 128 0 35.008 14.272 67.008 37.504 90.24v0.256c-14.272 8.96-26.752 20.48-38.016 33.536A128 128 0 0 0 256 192c-70.272 0-128 57.728-128 128 0 34.24 14.016 65.472 36.032 88.512A191.68 191.68 0 0 0 64 576h64c0-71.04 56.96-128 128-128 28.992 0 55.232 9.472 76.8 25.472L384 512V448c0-71.04 56.96-128 128-128 71.04 0 128 56.96 128 128v64l51.2-38.528c21.568-16 47.808-25.472 76.8-25.472 71.04 0 128 56.96 128 128h64a191.68 191.68 0 0 0-100.032-167.488C881.984 385.472 896 354.24 896 320c0-70.272-57.728-128-128-128-68.992 0-125.44 55.488-127.744 124.032a167.04 167.04 0 0 0-37.76-33.792A127.36 127.36 0 0 0 640 192c0-70.272-57.728-128-128-128z m0 64c35.776 0 64 28.224 64 64 0 35.776-28.224 64-64 64-35.776 0-64-28.224-64-64 0-35.776 28.224-64 64-64zM256 256c35.776 0 64 28.224 64 64 0 35.776-28.224 64-64 64-35.776 0-64-28.224-64-64 0-35.776 28.224-64 64-64z m512 0c35.776 0 64 28.224 64 64 0 35.776-28.224 64-64 64-35.776 0-64-28.224-64-64 0-35.776 28.224-64 64-64zM320 512c-70.272 0-128 57.728-128 128 0 34.24 14.016 65.472 36.032 88.512A191.68 191.68 0 0 0 128 896h64c0-71.04 56.96-128 128-128 71.04 0 128 56.96 128 128h64a191.68 191.68 0 0 0-100.032-167.488C434.048 705.472 448 674.24 448 640c0-70.272-57.728-128-128-128z m192 384h64c0-71.04 56.96-128 128-128 71.04 0 128 56.96 128 128h64a191.68 191.68 0 0 0-100.032-167.488c22.016-23.04 36.032-54.272 36.032-88.512 0-70.272-57.728-128-128-128-70.272 0-128 57.728-128 128 0 34.24 14.016 65.472 36.032 88.512A191.68 191.68 0 0 0 512 896zM320 576c35.776 0 64 28.224 64 64 0 35.776-28.224 64-64 64-35.776 0-64-28.224-64-64 0-35.776 28.224-64 64-64z m384 0c35.776 0 64 28.224 64 64 0 35.776-28.224 64-64 64-35.776 0-64-28.224-64-64 0-35.776 28.224-64 64-64z" fill="#1296db" p-id="8418"></path></svg>